<mxfile host="app.diagrams.net" modified="2022-02-16T17:15:27.593Z" agent="5.0 (X11; Linux x86_64) AppleWebKit/537.36 (KHTML, like Gecko) Chrome/96.0.4664.110 Safari/537.36" etag="cyHk0HO-JNzXSAVMLN0F" version="16.5.6" type="github">
  <diagram id="iy_MX5z4Zdc2HMmkJ38e" name="Page-1">
    <mxGraphModel dx="1550" dy="849" grid="1" gridSize="10" guides="1" tooltips="1" connect="1" arrows="1" fold="1" page="1" pageScale="1" pageWidth="850" pageHeight="1100" math="0" shadow="0">
      <root>
        <mxCell id="0" />
        <mxCell id="1" parent="0" />
        <mxCell id="aMJPLOWitkF93UjhTx93-1" value="Online School Application" style="ellipse;whiteSpace=wrap;html=1;" parent="1" vertex="1">
          <mxGeometry x="390" y="20" width="120" height="80" as="geometry" />
        </mxCell>
        <mxCell id="aMJPLOWitkF93UjhTx93-3" style="edgeStyle=orthogonalEdgeStyle;orthogonalLoop=1;jettySize=auto;html=1;entryX=0;entryY=0.5;entryDx=0;entryDy=0;rounded=1;exitX=1;exitY=0.5;exitDx=0;exitDy=0;" parent="1" source="aMJPLOWitkF93UjhTx93-2" target="aMJPLOWitkF93UjhTx93-1" edge="1">
          <mxGeometry relative="1" as="geometry">
            <Array as="points">
              <mxPoint x="300" y="100" />
              <mxPoint x="300" y="50" />
            </Array>
            <mxPoint x="365" y="40" as="targetPoint" />
          </mxGeometry>
        </mxCell>
        <mxCell id="aMJPLOWitkF93UjhTx93-2" value="Database&lt;br&gt;SQL" style="ellipse;whiteSpace=wrap;html=1;" parent="1" vertex="1">
          <mxGeometry x="110" y="60" width="120" height="80" as="geometry" />
        </mxCell>
        <mxCell id="aMJPLOWitkF93UjhTx93-6" style="edgeStyle=orthogonalEdgeStyle;orthogonalLoop=1;jettySize=auto;html=1;rounded=1;" parent="1" source="aMJPLOWitkF93UjhTx93-4" target="aMJPLOWitkF93UjhTx93-2" edge="1">
          <mxGeometry relative="1" as="geometry" />
        </mxCell>
        <mxCell id="aMJPLOWitkF93UjhTx93-9" style="edgeStyle=orthogonalEdgeStyle;rounded=1;orthogonalLoop=1;jettySize=auto;html=1;entryX=0;entryY=0.5;entryDx=0;entryDy=0;exitX=0;exitY=0.5;exitDx=0;exitDy=0;" parent="1" source="aMJPLOWitkF93UjhTx93-4" target="aMJPLOWitkF93UjhTx93-8" edge="1">
          <mxGeometry relative="1" as="geometry" />
        </mxCell>
        <mxCell id="aMJPLOWitkF93UjhTx93-11" style="edgeStyle=orthogonalEdgeStyle;rounded=1;orthogonalLoop=1;jettySize=auto;html=1;entryX=0;entryY=0.5;entryDx=0;entryDy=0;exitX=0;exitY=0.5;exitDx=0;exitDy=0;" parent="1" source="aMJPLOWitkF93UjhTx93-4" target="aMJPLOWitkF93UjhTx93-10" edge="1">
          <mxGeometry relative="1" as="geometry">
            <Array as="points">
              <mxPoint x="20" y="220" />
              <mxPoint x="20" y="340" />
            </Array>
          </mxGeometry>
        </mxCell>
        <mxCell id="aMJPLOWitkF93UjhTx93-14" style="edgeStyle=orthogonalEdgeStyle;rounded=1;orthogonalLoop=1;jettySize=auto;html=1;entryX=0;entryY=0.5;entryDx=0;entryDy=0;" parent="1" target="aMJPLOWitkF93UjhTx93-12" edge="1">
          <mxGeometry relative="1" as="geometry">
            <mxPoint x="20" y="390" as="targetPoint" />
            <mxPoint x="40" y="220" as="sourcePoint" />
            <Array as="points">
              <mxPoint x="20" y="220" />
              <mxPoint x="20" y="390" />
            </Array>
          </mxGeometry>
        </mxCell>
        <mxCell id="aMJPLOWitkF93UjhTx93-4" value="Users" style="ellipse;whiteSpace=wrap;html=1;" parent="1" vertex="1">
          <mxGeometry x="40" y="180" width="120" height="80" as="geometry" />
        </mxCell>
        <mxCell id="aMJPLOWitkF93UjhTx93-7" style="edgeStyle=orthogonalEdgeStyle;orthogonalLoop=1;jettySize=auto;html=1;entryX=0.5;entryY=1;entryDx=0;entryDy=0;rounded=1;" parent="1" source="aMJPLOWitkF93UjhTx93-5" target="aMJPLOWitkF93UjhTx93-2" edge="1">
          <mxGeometry relative="1" as="geometry" />
        </mxCell>
        <mxCell id="aMJPLOWitkF93UjhTx93-5" value="Application data" style="ellipse;whiteSpace=wrap;html=1;" parent="1" vertex="1">
          <mxGeometry x="190" y="180" width="120" height="80" as="geometry" />
        </mxCell>
        <mxCell id="aMJPLOWitkF93UjhTx93-8" value="Admin" style="rounded=1;whiteSpace=wrap;html=1;" parent="1" vertex="1">
          <mxGeometry x="60" y="270" width="100" height="40" as="geometry" />
        </mxCell>
        <mxCell id="aMJPLOWitkF93UjhTx93-10" value="Teachers" style="rounded=1;whiteSpace=wrap;html=1;" parent="1" vertex="1">
          <mxGeometry x="60" y="320" width="100" height="40" as="geometry" />
        </mxCell>
        <mxCell id="aMJPLOWitkF93UjhTx93-12" value="Students" style="rounded=1;whiteSpace=wrap;html=1;" parent="1" vertex="1">
          <mxGeometry x="60" y="370" width="100" height="40" as="geometry" />
        </mxCell>
      </root>
    </mxGraphModel>
  </diagram>
</mxfile>
